<svg version="1.1" xmlns="http://www.w3.org/2000/svg" viewBox="0 0 705 406" width="705" height="406"><!-- payload-type:application/vnd.excalidraw+json --><!-- payload-version:2 --><!-- payload-start -->eyJ2ZXJzaW9uIjoiMSIsImVuY29kaW5nIjoiYnN0cmluZyIsImNvbXByZXNzZWQiOnRydWUsImVuY29kZWQiOiJ4nO1dW4/jtlx1MDAxNX6fXyFMX1ok6/B+yVuy3aJcdTAwMDGaoM2m7UNcdTAwMWFcdTAwMTSyRXuE0UiGJM+lwf73XHUwMDFlaTzWjbZFr7zWYORcdTAwMDFcdTAwMTY2RYpcdTAwMTd9XHUwMDFmz3fII+7vV553nT+tzfW33rV5XFz4UVx1MDAxOKT+w/XXRfq9SbMwieFcdTAwMTIpf2fJJl2UOW/yfJ19+803VYnZXCK5ey5lXCJzZ+I8g3y/wm/P+738XHUwMDE3roRBWUv0X1xc5izTXupOzVwi9+NVZKpLj5COdr+eXHUwMDFhv1x1MDAxZcIgv4FcdTAwMTQhqrRcdTAwMWJcdTAwMTOubnJIpJLsXHUwMDEyn+9ZL5rlaXJr3idRklx1MDAxNlx1MDAxNf/BXHUwMDBm5nxcdTAwMWVU1c79xe0qTTZxUOVZlp8qzzKMoo/5U3lnXHUwMDE4XHUwMDE2XHUwMDE4guvW/f+9bSBppe8rXHUwMDA1XHUwMDE1rm5ik2WNtiZrf1x1MDAxMeZF1zGqUovWrX9cYspcdTAwMTH+rWpT6t+ZXHUwMDFmiiGON1FUv3FcdTAwMWNsb/zyJKpxp9uUT1UzjSnugamkmCuB5O5KXHUwMDA1XHUwMDA33E77KYlLYFx1MDAxMKqRwkKwXYYw+zNcdTAwMDBcIi/vufSjzFTjXFw07ENcdTAwMDWWRqs368B/LoQlJpRxIVx1MDAxNapcckFcdTAwMTTGt+0yUbK4req5qnWri0DSRWBuXHUwMDFl8yb4SFx1MDAxM32YdeCHOZ6RLlx1MDAwMLGccVx1MDAwN1x1MDAwNGJT/Fx1MDAxZERgnvpxtvZTXHUwMDE4q1NQiMeEwsaFLdw4lVx1MDAxOGHFXcCGuSZMSK7I5dFWoalAXHUwMDExXGbsh/fE+ymEwfbCOIOZbVF7vsskzj+G/zNNTFx1MDAxNal/8e/C6KkxbVx1MDAxNDf8LlxuV8VQXFxHZll7/jBcdTAwMWV5XGJcdTAwMTPw7nKerOsoylxmNLxVy1x1MDAwMmrxITXtPqMkXHJXYexHv/Togr/Jk59N9tyJPN2Y+liZv+6IMCP8MFx1MDAxMWlcdTAwMWZcImLdYqLoMlHwWZVaMZHPqqLHmaiEMlq8bSZqJFxi0jVcdTAwMTPag4qcQDFMeGUsxsPEJDZe5t+tI+OtTXqEjqSRuqMjXHUwMDFklo5VLVx1MDAwZXQ82o/BOMl6yzMmqydejNM7m40kXHUwMDE2iUaUXHUwMDAzKyViyqjDXG7N8GB+mkJcdTAwMWJcdTAwMTUjXHUwMDFkXHUwMDE0XHUwMDFhk5oyzFxiq1x1MDAwM/CoQNNacM5wXHUwMDA16P5E/XXXtqqVddjw3Vg1oFPycHfh0/ZbNSrnlnq8j4Vhis6aNuZdXcPtsIzUzIJmRysz6T1cdTAwMTgxhTnXSlMn9Fx1MDAxMoSRkEidgN5zm5nMj4N58uhcdTAwMTUzeppETuZlj9pbQNNNesDA3IVBXHUwMDEwXHUwMDE5N1x1MDAxYtOa4NtWZm83XHUwMDA2sy6it3WhTUbWJMnO/UdW2+LifPVy/9VSL/1XT0RcdTAwMTf3n3FakE1qXHUwMDE3foJHhrjESlRKfKT+v+xjXHUwMDE0eFx1MDAxM3/Kpm2E1Vx1MDAxZUz+v6s90IBcdTAwMWSGXHUwMDExdbJcdTAwMDdcdTAwMTjAXHUwMDAxjp8kp8iZc1x1MDAxYlx1MDAwNHhiK+PtJt9X5/7vbf9glkD1ISGWXHUwMDE1lUpcdTAwMTZ2fX+C7SycfH9XXHUwMDE2wsyttcROLlx1MDAwNcyBXG5Jik7yKc5Nwk28TsP7MDIrXHUwMDEzeP/ZIDSXXlx1MDAxNM7vwzRcdTAwMGa8r7x/fPjxn69uIcCpT4ORVfeWbbxJWEy7ulxykyrPjq/Sha1Mc5BcdTAwMWFH1lx1MDAwNLRZmDe1a6ORQFx1MDAxMlx1MDAxMdIh6yFcdTAwMDJcdTAwMGJFOJH6lD2bY0tcdTAwMDJcdTAwMTiNc02g1q5cdTAwMDOmR8rWmlx1MDAwMOZyJkh3WUBhq/1RMznJQCdcdTAwMDMkqFZcdTAwMWEx5Vx1MDAwMl9wU1xi0lxijcDn6GrAZFx1MDAwM1x1MDAxZbz3r1x1MDAxZu1GhjdSz7pcdTAwMWNQVdVdXHUwMDBlqE3tXHUwMDFkXHUwMDEx2O3AYFx1MDAxNlx1MDAwNfdcdTAwMGZcdTAwMDPAiM1aVoVYdKBtXHUwMDAzyCVcdTAwMTRgWmj2bFx1MDAwYs1Cc4KZdGIl01pQXHUwMDBlRS/PyiMotIRcdTAwMDLsQ6H+XCLKhlxiauaHQVx1MDAxOMxccntj8ShIccJA2TjFo2CiXHSoXHUwMDFiKk+B4VFxQ0cqbnrtqVx1MDAxM4raU+pcdTAwMWV1w9mkblx1MDAwNlE3XFxoxblw2llcdTAwMDdtw4lgXFyPUd48mPnYtU19em+Lm3bzh1M2/XfQXHSblM3llFxykcBcdTAwMDCu3WxcbphcdTAwMTPBXHUwMDEwQ+OXNpat731bbXSSNpdcdTAwMGK11VxcYIFdYYhcdTAwMDRSVGN8XHUwMDAyXGaPSlx1MDAxYjFSaWPZPO5KXHUwMDFiKnnPhVx1MDAxYsYnaTOItMFYXCLCQW07bVx1MDAxZGiEXHUwMDAwv7q2YDxcdTAwMWVtXHUwMDEzjF/a8P3SJjiXsrFsnO8zKWpSNlx1MDAxN1xmXHUwMDBlpFST+pTXh46CXHShkVx1MDAxY0F41Vx1MDAxMVx1MDAxNFp2jvdGqH5cdGFjXHUwMDEwxVx1MDAxNFx1MDAxZlx1MDAwNuFyaaihb0rYXHUwMDEwwVx1MDAxOUxcdTAwMDPEKahcdTAwMDPkOGhrrc9cdTAwMTGiivVIdY1ld9VcdTAwMTaPhHsu2Ugy6ZphdI2kilAlXHUwMDFjXHUwMDE3baCAQlBcdTAwMTCdgOFzXHUwMDBiXHUwMDFif1x1MDAwNVx1MDAxNY1e26j92qbbgcHkXHKx7Fx1MDAwYu+LciCTvLmoy8y1cotTXHUwMDEyRFx1MDAxN0upY9goPoLC/lx1MDAxYqOtWFx1MDAxYnDBOlx1MDAxMOTMom7YeGJtXi1cdTAwMDYlXHUwMDA1blLhXHUwMDE2XCJNXHUwMDE5UYJLcVx1MDAwZXVDyDjVXHLp9bY11mymm2hcdTAwMTZ0pmRX3YCstL51LWZkkjdu8oZpTVx1MDAxONHMSd6Ai8i55KNcZvj8W1x1MDAxOG9cdTAwMWW9eVx1MDAxYVx1MDAwNiuTeV95oFx1MDAxNUxaVOLFy9yfRyaz61x1MDAxZdpIPVx1MDAxNu/5WbqnumdX99Sn/rbucenacIrIspnsp2ny0Fwib+OVh5K8qGuKkM0r4S6m6I1cdTAwMDVpd81cdTAwMTHZZ47AXHUwMDFhXHRcdTAwMDVcXHaK0uFaSMKwXHUwMDE401x1MDAwMuw6XHTb5q765lVjXf7Yff/ta3vuWSM/r1x1MDAxNeiYwcjP8vfJ3V2YQ0/+XrSiM2vmfpp/XHUwMDFmxkFcdTAwMTiv2tdMXHUwMDFj7LlSlvqu4MyN8TuPXHUwMDFiyrWvXHUwMDFkYaRlc9nCSMInRnpcdTAwMTdlJKVUKS2Ukz5kglBF5KjONJlcdTAwMTh5hJGWfXZcdTAwMGIjqZ5cdTAwMTjpXZSRXHUwMDA0cc518Z6hXHUwMDBiJbGgmmuMa0eNTZxcdTAwMWM9Jy2RXHUwMDAyXHUwMDE2TnI6cdK7rG4lRFFMXHUwMDFjXHUwMDBmgsCawVx1MDAxZlx1MDAxYZNcdTAwMDc6MfJcYiN7vXNf23Yt/W/UXVNniFqXf6bXfZ1futdYup66pzBXSoqTXCLqz73487I2Ylx1MDAxZcMs95I4evLC2Mtvaq+xe7HJ4+zltVmzSmF4oJIkfn1cdTAwMDeCXHLU2+GWiixRXHUwMDE5dpPboLjlyDDb3vXQu2afSe6Rx2RcdTAwMWOQwFKAT8qcts6kRFx1MDAxYVx1MDAwMUVHcKzrmcxtPTdAbUhrW3s426ORLecwlfPLYtNASYFcYn9dXHUwMDE4vHqu8LFZbedBN1xm+oHKa1vsXHUwMDAz1u4kXHUwMDFhgIThM5mPzCy9wmPap4TW9jhfJlx1MDAxNor0XGZcdTAwMWPA6lNNRafqiPNPNePXXHUwMDExXG6UhEJEO609S6rAsSZqjEKiOEsjTN7dZ5DN+2Oc5J5fmNKHJL39k5cnnoG+PHmrjcnyVydcdTAwMWJO6ttw5/32OnmhiOAnqPZp+ui0tsux21x1MDAxNEZqJuvUrrKcSm0jwPCht01tolx1MDAwNVx1MDAwMy/B7eVvLlx1MDAxNOKMkFx1MDAxMVx1MDAwNFx1MDAxMneobe7DwEAzPVx1MDAxOHHj32VeslxcvjvpUOA9MXFpXHS2L8Xmnt1cdTAwMTmOv5bYJJvI11VvSsbSblx1MDAxOEdtyWfH0HHR87WKfCwpJZpJt1x1MDAwMDlNQVx1MDAxZeExhMedR+RXeGtl/3yNf45cdTAwMTW1tji+2rbw2l+vP+YwwjtMXHUwMDAwpsJgO1m9XHUwMDFjtlxyZt48fL//vzK52sKmYIMp4fXp6tPV/1x1MDAwMWN3aoAifQ==<!-- payload-end -->
  <!-- svg-source:excalidraw -->
  
  <defs>
    <style>
      @font-face {
        font-family: "Virgil";
        src: url("https://excalidraw.com/Virgil.woff2");
      }
      @font-face {
        font-family: "Cascadia";
        /* remote font replaced with system monospace */
      }
    </style>
  </defs>
  <g stroke-linecap="round" transform="translate(10 24) rotate(0 330 186)"><path d="M0 0 L660 0 L660 372 L0 372" stroke="none" stroke-width="0" fill="#ffffff"></path><path d="M0 0 C233.81 0, 467.62 0, 660 0 M0 0 C177.18 0, 354.35 0, 660 0 M660 0 C660 130.2, 660 260.4, 660 372 M660 0 C660 137.45, 660 274.91, 660 372 M660 372 C399.8 372, 139.6 372, 0 372 M660 372 C408.32 372, 156.65 372, 0 372 M0 372 C0 248.3, 0 124.6, 0 0 M0 372 C0 288.25, 0 204.5, 0 0" stroke="#adb5bd" stroke-width="2" fill="none"></path></g><g transform="translate(30 38) rotate(0 75.6 8.75)"><text x="0" y="14" font-family="Helvetica, Segoe UI Emoji" font-size="14px" fill="#1e1e1e" text-anchor="start" style="white-space: pre;" direction="ltr">EC2 Nitro instance</text></g><g transform="translate(200 40) rotate(0 82.80000000000001 7.5)"><text x="0" y="12" font-family="'SFMono-Regular', Menlo, Consolas, 'Courier New', monospace" font-size="12px" fill="#868e96" text-anchor="start" style="white-space: pre;" direction="ltr">one sample per instance</text></g><g stroke-linecap="round" transform="translate(487 10) rotate(0 60 14)"><path d="M0 0 L120 0 L120 28 L0 28" stroke="none" stroke-width="0" fill="#e5dbff"></path><path d="M0 0 C38.54 0, 77.08 0, 120 0 M0 0 C29.29 0, 58.58 0, 120 0 M120 0 C120 6.42, 120 12.84, 120 28 M120 0 C120 8.28, 120 16.56, 120 28 M120 28 C95.82 28, 71.65 28, 0 28 M120 28 C93.7 28, 67.41 28, 0 28 M0 28 C0 18.18, 0 8.37, 0 0 M0 28 C0 19.57, 0 11.15, 0 0" stroke="#7048e8" stroke-width="1" fill="none"></path></g><g transform="translate(493 16.5) rotate(0 54 7.5)"><text x="54" y="12" font-family="Helvetica, Segoe UI Emoji" font-size="12px" fill="#1e1e1e" text-anchor="middle" style="white-space: pre;" direction="ltr">sandbox control</text></g><g stroke-linecap="round" transform="translate(40 96) rotate(0 300 142.5)"><path d="M0 0 L600 0 L600 285 L0 285" stroke="none" stroke-width="0" fill="#f8f9fa"></path><path d="M0 0 C235.3 0, 470.6 0, 600 0 M0 0 C164.36 0, 328.72 0, 600 0 M600 0 C600 60.6, 600 121.21, 600 285 M600 0 C600 73.26, 600 146.52, 600 285 M600 285 C386.77 285, 173.54 285, 0 285 M600 285 C373.23 285, 146.46 285, 0 285 M0 285 C0 196.13, 0 107.26, 0 0 M0 285 C0 186.63, 0 88.25, 0 0" stroke="#adb5bd" stroke-width="1" fill="none"></path></g><g transform="translate(60 108) rotate(0 63 8.75)"><text x="0" y="14" font-family="Helvetica, Segoe UI Emoji" font-size="14px" fill="#1e1e1e" text-anchor="start" style="white-space: pre;" direction="ltr">range container</text></g><g transform="translate(185 110) rotate(0 108 7.5)"><text x="0" y="12" font-family="'SFMono-Regular', Menlo, Consolas, 'Courier New', monospace" font-size="12px" fill="#868e96" text-anchor="start" style="white-space: pre;" direction="ltr">unprivileged · libvirtd + QEMU</text></g><g stroke-linecap="round" transform="translate(65 156) rotate(0 62.5 35)"><path d="M0 0 L125 0 L125 70 L0 70" stroke="none" stroke-width="0" fill="#e9ecef"></path><path d="M0 0 C39.71 0, 79.42 0, 125 0 M0 0 C45.82 0, 91.64 0, 125 0 M125 0 C125 24.15, 125 48.31, 125 70 M125 0 C125 17.94, 125 35.88, 125 70 M125 70 C94.64 70, 64.29 70, 0 70 M125 70 C84.25 70, 43.5 70, 0 70 M0 70 C0 52.49, 0 34.97, 0 0 M0 70 C0 53.97, 0 37.94, 0 0" stroke="#495057" stroke-width="2" fill="none"></path></g><g transform="translate(87 181.625) rotate(0 40.5 9.375)"><text x="40.5" y="15" font-family="Helvetica, Segoe UI Emoji" font-size="15px" fill="#1e1e1e" text-anchor="middle" style="white-space: pre;" direction="ltr">router VM</text></g><g stroke-linecap="round" transform="translate(114.5 150) rotate(0 13 6)"><path d="M0 0 L26 0 L26 12 L0 12" stroke="none" stroke-width="0" fill="#e5dbff"></path><path d="M0 0 C9.74 0, 19.49 0, 26 0 M0 0 C5.7 0, 11.39 0, 26 0 M26 0 C26 3.92, 26 7.83, 26 12 M26 0 C26 3.32, 26 6.65, 26 12 M26 12 C17.46 12, 8.91 12, 0 12 M26 12 C16.8 12, 7.61 12, 0 12 M0 12 C0 7.94, 0 3.87, 0 0 M0 12 C0 7.29, 0 2.58, 0 0" stroke="#7048e8" stroke-width="1" fill="none"></path></g><g stroke-linecap="round" transform="translate(205 156) rotate(0 62.5 35)"><path d="M0 0 L125 0 L125 70 L0 70" stroke="none" stroke-width="0" fill="#dbe4ff"></path><path d="M0 0 C25.13 0, 50.25 0, 125 0 M0 0 C30.94 0, 61.89 0, 125 0 M125 0 C125 21.07, 125 42.13, 125 70 M125 0 C125 25.17, 125 50.34, 125 70 M125 70 C82.63 70, 40.25 70, 0 70 M125 70 C82.78 70, 40.56 70, 0 70 M0 70 C0 44.15, 0 18.3, 0 0 M0 70 C0 46.06, 0 22.12, 0 0" stroke="#4263eb" stroke-width="2" fill="none"></path></g><g transform="translate(240.5 181.625) rotate(0 27 9.375)"><text x="27" y="15" font-family="Helvetica, Segoe UI Emoji" font-size="15px" fill="#1e1e1e" text-anchor="middle" style="white-space: pre;" direction="ltr">web VM</text></g><g stroke-linecap="round" transform="translate(254.5 150) rotate(0 13 6)"><path d="M0 0 L26 0 L26 12 L0 12" stroke="none" stroke-width="0" fill="#e5dbff"></path><path d="M0 0 C5.68 0, 11.36 0, 26 0 M0 0 C9.53 0, 19.07 0, 26 0 M26 0 C26 2.91, 26 5.82, 26 12 M26 0 C26 3.92, 26 7.84, 26 12 M26 12 C20.27 12, 14.53 12, 0 12 M26 12 C16.98 12, 7.96 12, 0 12 M0 12 C0 8.73, 0 5.47, 0 0 M0 12 C0 7.2, 0 2.41, 0 0" stroke="#7048e8" stroke-width="1" fill="none"></path></g><g stroke-linecap="round" transform="translate(345 156) rotate(0 62.5 35)"><path d="M0 0 L125 0 L125 70 L0 70" stroke="none" stroke-width="0" fill="#dbe4ff"></path><path d="M0 0 C39.29 0, 78.58 0, 125 0 M0 0 C37.67 0, 75.33 0, 125 0 M125 0 C125 25.84, 125 51.68, 125 70 M125 0 C125 27.18, 125 54.36, 125 70 M125 70 C94.29 70, 63.58 70, 0 70 M125 70 C94.32 70, 63.64 70, 0 70 M0 70 C0 42.21, 0 14.42, 0 0 M0 70 C0 47.08, 0 24.16, 0 0" stroke="#4263eb" stroke-width="2" fill="none"></path></g><g transform="translate(385 181.625) rotate(0 22.5 9.375)"><text x="22.5" y="15" font-family="Helvetica, Segoe UI Emoji" font-size="15px" fill="#1e1e1e" text-anchor="middle" style="white-space: pre;" direction="ltr">db VM</text></g><g stroke-linecap="round" transform="translate(394.5 150) rotate(0 13 6)"><path d="M0 0 L26 0 L26 12 L0 12" stroke="none" stroke-width="0" fill="#e5dbff"></path><path d="M0 0 C9.82 0, 19.65 0, 26 0 M0 0 C8.61 0, 17.22 0, 26 0 M26 0 C26 3.92, 26 7.85, 26 12 M26 0 C26 3.58, 26 7.15, 26 12 M26 12 C15.89 12, 5.77 12, 0 12 M26 12 C20.24 12, 14.48 12, 0 12 M0 12 C0 7.58, 0 3.16, 0 0 M0 12 C0 8.52, 0 5.05, 0 0" stroke="#7048e8" stroke-width="1" fill="none"></path></g><g stroke-linecap="round" transform="translate(485 156) rotate(0 62.5 35)"><path d="M0 0 L125 0 L125 70 L0 70" stroke="none" stroke-width="0" fill="#ffe3e3"></path><path d="M0 0 C36.1 0, 72.19 0, 125 0 M0 0 C43.71 0, 87.43 0, 125 0 M125 0 C125 20.58, 125 41.16, 125 70 M125 0 C125 19.52, 125 39.05, 125 70 M125 70 C82.21 70, 39.43 70, 0 70 M125 70 C77.98 70, 30.96 70, 0 70 M0 70 C0 51.82, 0 33.64, 0 0 M0 70 C0 48.69, 0 27.39, 0 0" stroke="#e03131" stroke-width="2" fill="none"></path></g><g transform="translate(511.5 181.625) rotate(0 36 9.375)"><text x="36" y="15" font-family="Helvetica, Segoe UI Emoji" font-size="15px" fill="#1e1e1e" text-anchor="middle" style="white-space: pre;" direction="ltr">agent VM</text></g><g stroke-linecap="round" transform="translate(534.5 150) rotate(0 13 6)"><path d="M0 0 L26 0 L26 12 L0 12" stroke="none" stroke-width="0" fill="#e5dbff"></path><path d="M0 0 C8.85 0, 17.7 0, 26 0 M0 0 C6.79 0, 13.57 0, 26 0 M26 0 C26 3.68, 26 7.36, 26 12 M26 0 C26 3.11, 26 6.23, 26 12 M26 12 C19.99 12, 13.98 12, 0 12 M26 12 C15.77 12, 5.55 12, 0 12 M0 12 C0 9.02, 0 6.04, 0 0 M0 12 C0 9.41, 0 6.82, 0 0" stroke="#7048e8" stroke-width="1" fill="none"></path></g><g stroke-linecap="round" transform="translate(65 276) rotate(0 272.5 20)"><path d="M0 0 L545 0 L545 40 L0 40" stroke="none" stroke-width="0" fill="#e9ecef"></path><path d="M0 0 C185.45 0, 370.9 0, 545 0 M0 0 C196.63 0, 393.27 0, 545 0 M545 0 C545 8.48, 545 16.95, 545 40 M545 0 C545 14.95, 545 29.89, 545 40 M545 40 C334.2 40, 123.4 40, 0 40 M545 40 C351.05 40, 157.1 40, 0 40 M0 40 C0 31.17, 0 22.33, 0 0 M0 40 C0 26.98, 0 13.97, 0 0" stroke="#495057" stroke-width="1" fill="none"></path></g><g transform="translate(204.9 287.875) rotate(0 132.60000000000002 8.125)"><text x="132.6" y="13" font-family="'SFMono-Regular', Menlo, Consolas, 'Courier New', monospace" font-size="13px" fill="#1e1e1e" text-anchor="middle" style="white-space: pre;" direction="ltr">Linux bridges + generated nftables</text></g><g stroke-linecap="round"><g transform="translate(127.5 226) rotate(0 0 25)"><path d="M0 0 C0 8.33, 0 41.67, 0 50 M0 0 C0 8.33, 0 41.67, 0 50" stroke="#868e96" stroke-width="1" fill="none"></path></g></g><g stroke-linecap="round"><g transform="translate(267.5 226) rotate(0 0 25)"><path d="M0 0 C0 8.33, 0 41.67, 0 50 M0 0 C0 8.33, 0 41.67, 0 50" stroke="#868e96" stroke-width="1" fill="none"></path></g></g><g stroke-linecap="round"><g transform="translate(407.5 226) rotate(0 0 25)"><path d="M0 0 C0 8.33, 0 41.67, 0 50 M0 0 C0 8.33, 0 41.67, 0 50" stroke="#868e96" stroke-width="1" fill="none"></path></g></g><g stroke-linecap="round"><g transform="translate(547.5 226) rotate(0 0 25)"><path d="M0 0 C0 8.33, 0 41.67, 0 50 M0 0 C0 8.33, 0 41.67, 0 50" stroke="#868e96" stroke-width="1" fill="none"></path></g></g><g transform="translate(80 330) rotate(0 201.6 7.5)"><text x="0" y="12" font-family="'SFMono-Regular', Menlo, Consolas, 'Courier New', monospace" font-size="12px" fill="#868e96" text-anchor="start" style="white-space: pre;" direction="ltr">bridges exist only in the container netns · egress: none</text></g><g stroke-linecap="round"><g transform="translate(547 38) rotate(0 0 56)"><path d="M0 0 C0 18.67, 0 93.33, 0 112 M0 0 C0 18.67, 0 93.33, 0 112" stroke="#7048e8" stroke-width="2" fill="none"></path></g><g transform="translate(547 38) rotate(0 0 56)"><path d="M0 112 L-6.34 98.41 L6.34 98.41 L0 112" stroke="none" stroke-width="0" fill="#7048e8" fill-rule="evenodd"></path><path d="M0 112 C-2.02 107.66, -4.05 103.32, -6.34 98.41 M0 112 C-2.22 107.24, -4.44 102.47, -6.34 98.41 M-6.34 98.41 C-1.48 98.41, 3.37 98.41, 6.34 98.41 M-6.34 98.41 C-3.65 98.41, -0.95 98.41, 6.34 98.41 M6.34 98.41 C4.4 102.57, 2.46 106.73, 0 112 M6.34 98.41 C4.42 102.51, 2.51 106.62, 0 112 M0 112 C0 112, 0 112, 0 112 M0 112 C0 112, 0 112, 0 112" stroke="#7048e8" stroke-width="2" fill="none"></path></g></g><g transform="translate(200 64) rotate(0 154.79999999999998 7.5)"><text x="0" y="12" font-family="'SFMono-Regular', Menlo, Consolas, 'Courier New', monospace" font-size="12px" fill="#7048e8" text-anchor="start" style="white-space: pre;" direction="ltr">virtio-vsock (not a network) to every guest</text></g><g transform="translate(385.20000000000005 352) rotate(0 104.39999999999998 7.5)"><text x="208.79999999999998" y="12" font-family="Helvetica, Segoe UI Emoji" font-size="12px" fill="#e67700" text-anchor="end" style="white-space: pre;" direction="ltr">evidence streams off-instance</text></g><g stroke-linecap="round"><g transform="translate(602 359) rotate(0 46.5 0)"><path d="M0 0 C15.5 0, 77.5 0, 93 0 M0 0 C15.5 0, 77.5 0, 93 0" stroke="#e67700" stroke-width="2" fill="none"></path></g><g transform="translate(602 359) rotate(0 46.5 0)"><path d="M93 0 L79.41 6.34 L79.41 -6.34 L93 0" stroke="none" stroke-width="0" fill="#e67700" fill-rule="evenodd"></path><path d="M93 0 C87.86 2.4, 82.73 4.79, 79.41 6.34 M93 0 C87.96 2.35, 82.92 4.7, 79.41 6.34 M79.41 6.34 C79.41 3.39, 79.41 0.44, 79.41 -6.34 M79.41 6.34 C79.41 3.53, 79.41 0.71, 79.41 -6.34 M79.41 -6.34 C84.35 -4.03, 89.3 -1.73, 93 0 M79.41 -6.34 C83.45 -4.45, 87.49 -2.57, 93 0 M93 0 C93 0, 93 0, 93 0 M93 0 C93 0, 93 0, 93 0" stroke="#e67700" stroke-width="2" fill="none"></path></g></g></svg>