<svg version="1.1" xmlns="http://www.w3.org/2000/svg" viewBox="0 0 660 296" width="660" height="296"><!-- payload-type:application/vnd.excalidraw+json --><!-- payload-version:2 --><!-- payload-start -->eyJ2ZXJzaW9uIjoiMSIsImVuY29kaW5nIjoiYnN0cmluZyIsImNvbXByZXNzZWQiOnRydWUsImVuY29kZWQiOiJ4nO1dW2/jxlx1MDAxNX73ryDcl1x1MDAwNM0qM2fueUvSXHUwMDE2zUtRdFx1MDAwYvQhXHUwMDFiXHUwMDA0tDiyiaVJgaL2kmD/e1x1MDAwZrWyeFx1MDAxYopcdTAwMWOZWtNryYuFOLzMheeb79xm9OdVXHUwMDEwXFxcdTAwMTdcdTAwMWbX9vqH4Np+WIZJXHUwMDFj5eH76+/K8nc238RZiqdgd7zJtvlyd+VdUaw3P3z/fXXHYpndf77LJvbepsVcdTAwMDav+1x1MDAxNY+D4M/d/3gmjna1JL/T3ZW7soe6c7sswvQ2sdWpXHUwMDBmWE5cdTAwMGVHXHUwMDFmXHUwMDFiR+/jqLgrXHUwMDFiRquyO1x1MDAxYt/eXHUwMDE1WEh1Vfj5mfVbN0WevbU/Z0mWl1x1MDAxNf+Fg2T2pqr2Jlxcvr3Ns21cdTAwMWFV11huzWpZXbOKk+R18XH3ZFx1MDAxY1x1MDAxNlx1MDAxY4Lr1vP/t28gbZX33YVcdTAwMTXe3qV2s2m0NVuHy7gou05JVVq2bv1LtFx1MDAxYuHfqjbl4b39pVx1MDAxY+J0myT1XHUwMDA3p9H+wVx1MDAwZm+iXHUwMDFhd7Yv+VQ109ryXHUwMDE5lClGhZZEXHUwMDFkzlTiQNtl/8rSnWBcdTAwMDAzRFMp+eGCePM3XHUwMDE0iGL3zFWYbGw1zmXD/l5cdEuj1dt1XHUwMDE0fr6JKlxujFx1MDAwYqk0qVxyQVx1MDAxMqdv2/ck2fJtVc9VrVtdXHSErlx1MDAwNFx1MDAxNvZD0Vx1MDAxND4qXHUwMDFi0kehI36U8Vx1MDAwNXdcYqBaXGJcdTAwMGZcdKS2/DsqgUVcdTAwMWWmm3WY41g9eylsnNiLm2CKXHUwMDEyqoWPsFFhgEslNDy9tFXSVEpcdTAwMTFcdTAwMGXsL/i6cEpcdTAwMGI2y3C1ypLaXHUwMDE4r7K0eFx1MDAxZP+x61x1MDAwMW+U/iO8j5OPXHUwMDBm0+3hcT8m8W05XHUwMDEw14ld1d4+jkZcdTAwMTHj9Hs4XWTrulxmbSw2u1XLXHUwMDEya1x0sTTvvqEsj2/jNEz+O9iBcFtk/7Gbz10o8q2tj5P951x1MDAwMVx1MDAwNFx1MDAwYlx1MDAxMMdByEbTXHUwMDAwrVx1MDAwNKNcdTAwMWNcdTAwMWbhQKJ2XHUwMDEwXHUwMDAxm5pcdTAwMDdWu8+zR6BcdTAwMDdcdTAwMGZcYkMkXHUwMDEwo6Aud0PIXHUwMDE0gLdRXHUwMDEwXHUwMDE1d4xcdTAwMDfmr4e2Va2sXHUwMDBiXHI/jFVDcHa4O5z4tP9Wjcq5XHSFjyFcdTAwMTRcdTAwMGWLJqVcYr3QSnSFXHUwMDE5+EI7aEVcIqQuvOLDK1xcXHUwMDE5xilcdTAwMDfuI75gjFx1MDAxNIJTNkNeQTV7XHUwMDFkJzb4a4DvLLK5m1dYo3SIV5bY9vqTOsxyXHUwMDFmR1Fi3eRSVdUkl9ZcdTAwMDTfppf+fkxGL+JUejFcdTAwMTVIL/RyZjNDaCqE0YbVpW9cdTAwMTCgQCiRilRz5HT8XCLnyS9yXGa/SLloXHUwMDFhzJSAk2CUXrjs5lx1MDAwYr/48lx1MDAwYuWClcKojKflQoSiWspcdTAwMTNcdTAwMDT43FxmXHUwMDEz3mJFQZLVrYlcdTAwMTlyi+jnXHUwMDE2V1x1MDAwZiZjXHUwMDE1dSqrUN51X11o5Uy0Ylx1MDAxMGKcXHUwMDEy5kUrXHUwMDE0MUSlUHCK4jfEK3qevKLH8Fxu01x1MDAwYtWSZek2XFxY3cK5XHUwMDEwyyOIXHUwMDA1ycFcdTAwMThFvVxmXHUwMDE3XG5SXHUwMDEzxcgsLZf7LLJJsMxthFx1MDAxNcZ4yazpRfXTy5GOTMYy5sRcYlx0kEpgjsZIWFx1MDAwNdNhPFqpXHUwMDE0IYMkw6189lj0IFx1MDAxOUMkUVx1MDAwNKBcdTAwMDPHY1x1MDAxMJVcdTAwMWFcdTAwMDQoc0qAZIhhKJknxdTadcw3tlx1MDAwMFL/sKZcXFO+6NJccmreTrpcdTAwMTFcdTAwMGJcdTAwMWZcdTAwMTXqwjaBZGiCXHUwMDEzrn0kXHUwMDE5XHUwMDA3XHUwMDFmiCFkjjaMfVx1MDAxN+PkvLTBpshyXHUwMDFivNlcdTAwMTJyo4JwvbZp9CpLkVGc3Fx1MDAwM43Ss3JP9cwu95h+7vHo2GRcXETHh+uZbtKRI2AvXHUwMDFkZFx1MDAwNNxcdTAwMDevYXQjbqJBNjrR5IFW+XNhIy6NwFlSeWGYXHUwMDFiI5nAW59cdTAwMWXDXHUwMDAzMjgqYM/MYMRec6fn61x1MDAxMrD3tU+IXHUwMDE2wFH58cpcdTAwMGahYFx1MDAwMFx1MDAxNSCmZiBwXHUwMDFk0sA3dmuDu2xTuNlhxsF6V9Onm/9cdTAwMWRx+mHsMUeMXtCFMrWPK8bJXHUwMDE2ylx1MDAwN4paamvki4aikEZcdTAwMGIhvVwi9Ki6XHSQXFyYOWpvWYr6TXi/TmywtnlcdTAwMTCnXHUwMDFi1DWW1o1K2ig9oJI1nvpoVFa1eKBysFx1MDAxZtNB1JF+0KeimaaK5sqlIS6HgZdX2lxiXCLUcVx1MDAxNc1cdTAwMWG7tC/KK81BITKE8aNMZEvJXHQnp1DmoMugiqI0ZOfJXVx1MDAwNo7YvcNlQKHll+7Jp1x1MDAxMfzilZ5G62NGSCqpr1xiXHUwMDEzSTQztVl0PmSDtnNcdTAwMTLPPI+mPr13gp3t9k9HKo6cg5Gk4sigXHUwMDAx5rK7aKVcdTAwMDJOZPjrlVmFz1x1MDAxZXw+sU6qXGJcYjSsvEJFhlx1MDAxMMSjXHUwMDEx1Vx1MDAwNDhXy99cdTAwMTFwd1BcdTAwMDGBhlx1MDAwMFJHXHUwMDFjXHUwMDA0TVan7X/xXHUwMDE2eydVMmZAgle2vpFcXEpD1Ck5W1/G8j/Mu1M4h081NPr8wiPMf0f7p+NcdTAwMDJHnkBcdTAwMGZcdTAwMTdw0uRcdTAwMDLKu2RQM1ZcdTAwMGY45D5cdTAwMTHJi4FcdTAwMTG4qFx1MDAwMKTgTHPwSntBg1x1MDAwNK1cdTAwMGJjzpH1QqtYRkN2ntzAcFx1MDAwNNhdXHUwMDA2XHUwMDA2XCKjKcxcdTAwMTJcdTAwMTZcdTAwMTS6XHUwMDE2XHUwMDA2M05cdTAwMGLD05l14Vx1MDAxNnzdTFx1MDAwM9PS052FN2ii6zrmjNgl21x1MDAxNn2k0uO9OoeB0efCak/vXHUwMDFkcmk1fzJOXHUwMDAxR15AXHUwMDFmp1x1MDAwMG1nNvOqP1U6gFx1MDAwM4I+up1cIlxcWz3AKlwiunlhyZRo9Fx1MDAwYqP9MtEkmNLBPIfsgFx1MDAwMSlcdTAwMWNcdTAwMWbd5oq3ZPBcdTAwMWOazYiE3ujG8lx1MDAxNyaDiiE2mfTLs2dcdTAwMWO0XHUwMDE0Sp5Ds1x1MDAwMZinZlx1MDAwM6NcIuVcXIuLZvOll4pcdTAwMThcdTAwMDNcdTAwMWNcZvfSbNBiXHUwMDE2QolZZvRcdTAwMTZhfmt7guUzUWzqs3tbsWk3fzrFZvzCdrRjL4rNU5FcbnKK1FxiSa+UKWGkXHUwMDAyTuXsXHUwMDFkpzA+JixqmZ9nU2wsYZTR4zK4Wllm2UuSQcaY1kZqL72GSzSRQZ208cmgXjPTkDCMXG5cdFx1MDAwYtRiWsvu+vRcdTAwMWHmXGZcdTAwMDZcXPRcdTAwMWFfvVx1MDAwNohA87BcXG3nI8JUolVpKK2lXHUwMDAzz0ex2S0gnbdecyxcItxs/XRqzfh4sJDmotY8mVpcdTAwMDOgXHUwMDE5XHUwMDA1zy1cdTAwMTWo4fhHZmBnXGZIoSNcdTAwMWVcdTAwMWPmefa+pVjzpvzpbpqbS/q4h/S9sNTTrlx1MDAwNEKfXHUwMDA0UmOo8t3OTVOhtZKzSlxyX2dxW2uqvlx1MDAwNdVY71x1MDAwZVx1MDAwZd9/+274asqryzu6VFx1MDAxMm6Kn7P7+7jAfvy7bEOHe9F4LX6K0yhOb5vvZr/9pit3aEday21DSkqJXGLXJWDqV8VcdTAwMWaa9XZetE2jcbXLc9S+6/2PJejvbNhcdTAwMTFabFv9XHUwMDFjgjD+XGbmgYnFXHUwMDEx4nZMLEw2J5ZXlel0ZGJcdTAwMDHhYyo94cxcdTAwMTKFmzs746lcdTAwMDWIkmguca9ohFLEXHUwMDEwnFx0ZrAt6Vx1MDAxN5haUNamnFva2Oo544XJXHUwMDAzqvvROCpAz9Bea7ouXkFcdTAwMTePXHUwMDA2XHUwMDE2rL7spGKYy7KTcVx1MDAwMHXvUIE0r1x0XHUwMDE4L/eZYlx1MDAxYS0/0HNi+YM/O99uimBXa5j3LFx1MDAxMZ7Y/pt2wUlfXHUwMDA3ptuxddRSflx1MDAwMLJoRkp5lS9e7XHpXHUwMDBlLF2yMX1xXGJGctS3/Vb+XG6pieBcdTAwMDCzTMe0YVx1MDAxMv9cdTAwMTFcdTAwMTbY3OBcdTAwMDarTnqWfvllZOY7XHQ7XHUwMDAxiqelZFx1MDAxZenDdHB05C44VNb6co1ygKRcdTAwMDONppKUXHUwMDAzXHUwMDE2fYB4fkKc+cL8fmNYMVx1MDAwNoYrv1x1MDAwNFx1MDAxYcNcdTAwMTgxdFx1MDAwZekz59FYa1x1MDAwMte6/vFcdTAwMWHrXHUwMDExe7SKLVx1MDAwNU9gXGafxVx1MDAxND+LMcxGZZFcdTAwMDCHlpvXdL280yy7XHUwMDE44er96olelFve4j+vXHKnjJaSKE5PiVx1MDAxNZ5/M+tcdTAwMTSHOlx0lndhmtrk+bF8b1x1MDAwN6ajeEcuyVxiiqfUXHUwMDAxxMdy/Pkx+Gw5nlxuKjglwiuMX+7WKKFcdTAwMWVcdTAwMTl7emh+XHIkL56U5L+Mx7tcIvJHU/2on65cdTAwMDDoJKqBY4pBy9/p/b5wvW9ShTZKXHUwMDEwqv02MDY4oVC06meQnNYhe/vBLr/59mHLOrSPo9/xhdlvvn2Tvs/jwu6PXHUwMDFlLnizXHUwMDA1Us84qKtcdTAwMDSkUTq058vJTjg4SSd4ZD+n01x1MDAxY0YlTIGBlq9cdTAwMGVIN1Qu1EI0POiuXHUwMDFmPfNcdTAwMDP5iD1lv3aQa1xu2khmPFfWXHUwMDE4XHUwMDAwoGxcdTAwMDaJXHUwMDFhXYjvd6d8fop8t+XT4dCRNuWKK6tmIFx1MDAwYqBcdTAwMGJDKlx1MDAxZFx1MDAxZfN5ge75avBacKPB71x1MDAxN1x1MDAwM8pVbkZcYjEnME6qwb+qiVxc64bHq/D9keUj+rX5XCLqtY9cdTAwMGbtaj9cYuVWPK9cdTAwMGJ8jYdcdTAwMGWg5MbRfvp7SHa8flx1MDAxN9v3P/VvWXu1b1eJObtcdTAwMTPiT1efrv5cdTAwMGY908AoIn0=<!-- payload-end -->
  <!-- svg-source:excalidraw -->
  
  <defs>
    <style>
      @font-face {
        font-family: "Virgil";
        src: url("https://excalidraw.com/Virgil.woff2");
      }
      @font-face {
        font-family: "Cascadia";
        /* remote font replaced with system monospace */
      }
    </style>
  </defs>
  <g stroke-linecap="round" transform="translate(10 38) rotate(0 105 90)"><path d="M0 0 L210 0 L210 180 L0 180" stroke="none" stroke-width="0" fill="#e4e9fc"></path><path d="M0 0 C74.39 0, 148.79 0, 210 0 M0 0 C56.37 0, 112.75 0, 210 0 M210 0 C210 63, 210 126, 210 180 M210 0 C210 66.51, 210 133.02, 210 180 M210 180 C127.21 180, 44.42 180, 0 180 M210 180 C129.92 180, 49.84 180, 0 180 M0 180 C0 120.15, 0 60.29, 0 0 M0 180 C0 139.48, 0 98.95, 0 0" stroke="#4263eb" stroke-width="1" fill="none"></path></g><g transform="translate(26 50) rotate(0 67.2 8.75)"><text x="0" y="14" font-family="Helvetica, Segoe UI Emoji" font-size="14px" fill="#1e1e1e" text-anchor="start" style="white-space: pre;" direction="ltr">Inspect scaffold</text></g><g stroke-linecap="round" transform="translate(25 90) rotate(0 90 15)"><path d="M0 0 L180 0 L180 30 L0 30" stroke="none" stroke-width="0" fill="#ffffff"></path><path d="M0 0 C69.85 0, 139.71 0, 180 0 M0 0 C57.24 0, 114.48 0, 180 0 M180 0 C180 10.93, 180 21.85, 180 30 M180 0 C180 11.21, 180 22.42, 180 30 M180 30 C125.63 30, 71.27 30, 0 30 M180 30 C118.93 30, 57.87 30, 0 30 M0 30 C0 18.49, 0 6.99, 0 0 M0 30 C0 18.59, 0 7.18, 0 0" stroke="#4263eb" stroke-width="1" fill="none"></path></g><g transform="translate(52.6 96.875) rotate(0 62.400000000000006 8.125)"><text x="62.4" y="13" font-family="Helvetica, Segoe UI Emoji" font-size="13px" fill="#1e1e1e" text-anchor="middle" style="white-space: pre;" direction="ltr">compile + render</text></g><g stroke-linecap="round" transform="translate(25 134) rotate(0 90 15)"><path d="M0 0 L180 0 L180 30 L0 30" stroke="none" stroke-width="0" fill="#ffffff"></path><path d="M0 0 C43.27 0, 86.55 0, 180 0 M0 0 C69.9 0, 139.81 0, 180 0 M180 0 C180 8.78, 180 17.56, 180 30 M180 0 C180 6.73, 180 13.46, 180 30 M180 30 C134.83 30, 89.67 30, 0 30 M180 30 C126.84 30, 73.68 30, 0 30 M0 30 C0 18.82, 0 7.64, 0 0 M0 30 C0 21.68, 0 13.35, 0 0" stroke="#4263eb" stroke-width="1" fill="none"></path></g><g transform="translate(76 140.875) rotate(0 39 8.125)"><text x="39" y="13" font-family="Helvetica, Segoe UI Emoji" font-size="13px" fill="#1e1e1e" text-anchor="middle" style="white-space: pre;" direction="ltr">agent loop</text></g><g stroke-linecap="round" transform="translate(25 178) rotate(0 90 15)"><path d="M0 0 L180 0 L180 30 L0 30" stroke="none" stroke-width="0" fill="#ffffff"></path><path d="M0 0 C50.4 0, 100.79 0, 180 0 M0 0 C58.69 0, 117.37 0, 180 0 M180 0 C180 6.86, 180 13.73, 180 30 M180 0 C180 8.44, 180 16.89, 180 30 M180 30 C142.48 30, 104.95 30, 0 30 M180 30 C120.9 30, 61.81 30, 0 30 M0 30 C0 18.62, 0 7.24, 0 0 M0 30 C0 22.17, 0 14.34, 0 0" stroke="#4263eb" stroke-width="1" fill="none"></path></g><g transform="translate(48.7 184.875) rotate(0 66.30000000000001 8.125)"><text x="66.3" y="13" font-family="Helvetica, Segoe UI Emoji" font-size="13px" fill="#1e1e1e" text-anchor="middle" style="white-space: pre;" direction="ltr">model credentials</text></g><g stroke-linecap="round" transform="translate(10 242) rotate(0 105 18)"><path d="M0 0 L210 0 L210 36 L0 36" stroke="none" stroke-width="0" fill="#fff4e6"></path><path d="M0 0 C66.71 0, 133.43 0, 210 0 M0 0 C76.98 0, 153.96 0, 210 0 M210 0 C210 12.42, 210 24.84, 210 36 M210 0 C210 9.23, 210 18.45, 210 36 M210 36 C159 36, 108.01 36, 0 36 M210 36 C141.54 36, 73.09 36, 0 36 M0 36 C0 26.99, 0 17.99, 0 0 M0 36 C0 27.76, 0 19.51, 0 0" stroke="#e67700" stroke-width="1" fill="none"></path></g><g transform="translate(14.200000000000003 252.5) rotate(0 100.80000000000001 7.5)"><text x="100.8" y="12" font-family="Helvetica, Segoe UI Emoji" font-size="12px" fill="#1e1e1e" text-anchor="middle" style="white-space: pre;" direction="ltr">evidence store · append-only</text></g><g stroke-linecap="round" transform="translate(390 38) rotate(0 130 120)"><path d="M0 0 L260 0 L260 240 L0 240" stroke="none" stroke-width="0" fill="#ffffff"></path><path d="M0 0 C97.43 0, 194.87 0, 260 0 M0 0 C56.97 0, 113.95 0, 260 0 M260 0 C260 78.34, 260 156.68, 260 240 M260 0 C260 66.48, 260 132.97, 260 240 M260 240 C174.57 240, 89.14 240, 0 240 M260 240 C168.05 240, 76.09 240, 0 240 M0 240 C0 158.71, 0 77.43, 0 0 M0 240 C0 145.76, 0 51.52, 0 0" stroke="#adb5bd" stroke-width="2" fill="none"></path></g><g transform="translate(406 50) rotate(0 42 8.75)"><text x="0" y="14" font-family="Helvetica, Segoe UI Emoji" font-size="14px" fill="#1e1e1e" text-anchor="start" style="white-space: pre;" direction="ltr">range host</text></g><g transform="translate(406 70) rotate(0 75.89999999999998 6.875)"><text x="0" y="11" font-family="'SFMono-Regular', Menlo, Consolas, 'Courier New', monospace" font-size="11px" fill="#868e96" text-anchor="start" style="white-space: pre;" direction="ltr">one sample per instance</text></g><g stroke-linecap="round" transform="translate(400 90) rotate(0 50 15)"><path d="M0 0 L100 0 L100 30 L0 30" stroke="none" stroke-width="0" fill="#e9ecef"></path><path d="M0 0 C21.84 0, 43.68 0, 100 0 M0 0 C36.67 0, 73.34 0, 100 0 M100 0 C100 7.28, 100 14.56, 100 30 M100 0 C100 9.8, 100 19.61, 100 30 M100 30 C77.95 30, 55.9 30, 0 30 M100 30 C65.31 30, 30.62 30, 0 30 M0 30 C0 21.83, 0 13.67, 0 0 M0 30 C0 18.01, 0 6.02, 0 0" stroke="#495057" stroke-width="1" fill="none"></path></g><g transform="translate(422.7 96.875) rotate(0 27.30000000000001 8.125)"><text x="27.3" y="13" font-family="Helvetica, Segoe UI Emoji" font-size="13px" fill="#1e1e1e" text-anchor="middle" style="white-space: pre;" direction="ltr">applier</text></g><g stroke-linecap="round" transform="translate(400 134) rotate(0 115 59)"><path d="M0 0 L230 0 L230 118 L0 118" stroke="none" stroke-width="0" fill="#f8f9fa"></path><path d="M0 0 C86.04 0, 172.07 0, 230 0 M0 0 C61.97 0, 123.95 0, 230 0 M230 0 C230 39.46, 230 78.91, 230 118 M230 0 C230 27.13, 230 54.26, 230 118 M230 118 C173.33 118, 116.65 118, 0 118 M230 118 C141.21 118, 52.43 118, 0 118 M0 118 C0 89.8, 0 61.59, 0 0 M0 118 C0 74.75, 0 31.51, 0 0" stroke="#adb5bd" stroke-width="1" fill="none"></path></g><g transform="translate(412 142) rotate(0 54 7.5)"><text x="0" y="12" font-family="Helvetica, Segoe UI Emoji" font-size="12px" fill="#1e1e1e" text-anchor="start" style="white-space: pre;" direction="ltr">range container</text></g><g stroke-linecap="round" transform="translate(410 184) rotate(0 31 23)"><path d="M0 0 L62 0 L62 46 L0 46" stroke="none" stroke-width="0" fill="#e9ecef"></path><path d="M0 0 C17.9 0, 35.81 0, 62 0 M0 0 C21.68 0, 43.36 0, 62 0 M62 0 C62 13.52, 62 27.05, 62 46 M62 0 C62 12.83, 62 25.66, 62 46 M62 46 C40.78 46, 19.56 46, 0 46 M62 46 C38.68 46, 15.36 46, 0 46 M0 46 C0 34.05, 0 22.11, 0 0 M0 46 C0 32, 0 18, 0 0" stroke="#495057" stroke-width="1" fill="none"></path></g><g transform="translate(421.2 200.125) rotate(0 19.80000000000001 6.875)"><text x="19.8" y="11" font-family="Helvetica, Segoe UI Emoji" font-size="11px" fill="#1e1e1e" text-anchor="middle" style="white-space: pre;" direction="ltr">router</text></g><g stroke-linecap="round" transform="translate(431 179) rotate(0 10 5)"><path d="M0 0 L20 0 L20 10 L0 10" stroke="none" stroke-width="0" fill="#e5dbff"></path><path d="M0 0 C6.81 0, 13.61 0, 20 0 M0 0 C5.22 0, 10.44 0, 20 0 M20 0 C20 3.07, 20 6.14, 20 10 M20 0 C20 2.59, 20 5.19, 20 10 M20 10 C15.38 10, 10.75 10, 0 10 M20 10 C12.13 10, 4.27 10, 0 10 M0 10 C0 7.51, 0 5.03, 0 0 M0 10 C0 7.84, 0 5.68, 0 0" stroke="#7048e8" stroke-width="1" fill="none"></path></g><g stroke-linecap="round" transform="translate(484 184) rotate(0 31 23)"><path d="M0 0 L62 0 L62 46 L0 46" stroke="none" stroke-width="0" fill="#dbe4ff"></path><path d="M0 0 C21.1 0, 42.19 0, 62 0 M0 0 C22.37 0, 44.74 0, 62 0 M62 0 C62 9.75, 62 19.49, 62 46 M62 0 C62 17.19, 62 34.38, 62 46 M62 46 C38.02 46, 14.04 46, 0 46 M62 46 C39.94 46, 17.87 46, 0 46 M0 46 C0 35.84, 0 25.68, 0 0 M0 46 C0 31.03, 0 16.06, 0 0" stroke="#4263eb" stroke-width="1" fill="none"></path></g><g transform="translate(495.2 200.125) rotate(0 19.799999999999983 6.875)"><text x="19.8" y="11" font-family="Helvetica, Segoe UI Emoji" font-size="11px" fill="#1e1e1e" text-anchor="middle" style="white-space: pre;" direction="ltr">target</text></g><g stroke-linecap="round" transform="translate(505 179) rotate(0 10 5)"><path d="M0 0 L20 0 L20 10 L0 10" stroke="none" stroke-width="0" fill="#e5dbff"></path><path d="M0 0 C4.93 0, 9.86 0, 20 0 M0 0 C7.58 0, 15.15 0, 20 0 M20 0 C20 2.69, 20 5.38, 20 10 M20 0 C20 3.73, 20 7.47, 20 10 M20 10 C12.41 10, 4.83 10, 0 10 M20 10 C15.23 10, 10.46 10, 0 10 M0 10 C0 7.89, 0 5.77, 0 0 M0 10 C0 6.81, 0 3.63, 0 0" stroke="#7048e8" stroke-width="1" fill="none"></path></g><g stroke-linecap="round" transform="translate(558 184) rotate(0 31 23)"><path d="M0 0 L62 0 L62 46 L0 46" stroke="none" stroke-width="0" fill="#ffe3e3"></path><path d="M0 0 C14.27 0, 28.55 0, 62 0 M0 0 C20.4 0, 40.81 0, 62 0 M62 0 C62 9.67, 62 19.33, 62 46 M62 0 C62 13.58, 62 27.15, 62 46 M62 46 C43.2 46, 24.39 46, 0 46 M62 46 C48.47 46, 34.95 46, 0 46 M0 46 C0 33.09, 0 20.18, 0 0 M0 46 C0 32.78, 0 19.55, 0 0" stroke="#e03131" stroke-width="1" fill="none"></path></g><g transform="translate(572.5 200.125) rotate(0 16.5 6.875)"><text x="16.5" y="11" font-family="Helvetica, Segoe UI Emoji" font-size="11px" fill="#1e1e1e" text-anchor="middle" style="white-space: pre;" direction="ltr">agent</text></g><g stroke-linecap="round" transform="translate(579 179) rotate(0 10 5)"><path d="M0 0 L20 0 L20 10 L0 10" stroke="none" stroke-width="0" fill="#e5dbff"></path><path d="M0 0 C7.02 0, 14.04 0, 20 0 M0 0 C7.87 0, 15.73 0, 20 0 M20 0 C20 3, 20 5.99, 20 10 M20 0 C20 2.69, 20 5.38, 20 10 M20 10 C14.99 10, 9.98 10, 0 10 M20 10 C15.97 10, 11.95 10, 0 10 M0 10 C0 6.61, 0 3.22, 0 0 M0 10 C0 7.6, 0 5.2, 0 0" stroke="#7048e8" stroke-width="1" fill="none"></path></g><g stroke-linecap="round"><g transform="translate(450 120) rotate(0 0 7)"><path d="M0 0 C0 2.33, 0 11.67, 0 14 M0 0 C0 2.33, 0 11.67, 0 14" stroke="#868e96" stroke-width="1" fill="none"></path></g><g transform="translate(450 120) rotate(0 0 7)"><path d="M0 14 L-2.96 7.66 L2.96 7.66 L0 14" stroke="none" stroke-width="0" fill="#868e96" fill-rule="evenodd"></path><path d="M0 14 C-1.14 11.55, -2.29 9.09, -2.96 7.66 M0 14 C-0.74 12.42, -1.48 10.83, -2.96 7.66 M-2.96 7.66 C-0.68 7.66, 1.6 7.66, 2.96 7.66 M-2.96 7.66 C-0.98 7.66, 1 7.66, 2.96 7.66 M2.96 7.66 C2.24 9.2, 1.52 10.74, 0 14 M2.96 7.66 C2.09 9.52, 1.22 11.38, 0 14 M0 14 C0 14, 0 14, 0 14 M0 14 C0 14, 0 14, 0 14" stroke="#868e96" stroke-width="1" fill="none"></path></g></g><g stroke-linecap="round"><g transform="translate(370 30) rotate(0 0 128)"><path d="M0 0 C0 42.67, 0 213.33, 0 256" stroke="#868e96" stroke-width="1.5" fill="none" stroke-dasharray="8 9"></path></g></g><g transform="translate(323.8 10) rotate(0 46.19999999999999 6.875)"><text x="46.199999999999996" y="11" font-family="Helvetica, Segoe UI Emoji" font-size="11px" fill="#868e96" text-anchor="middle" style="white-space: pre;" direction="ltr">trust boundary</text></g><g transform="translate(230.4 85) rotate(0 64.8 7.5)"><text x="129.6" y="12" font-family="Helvetica, Segoe UI Emoji" font-size="12px" fill="#1e1e1e" text-anchor="end" style="white-space: pre;" direction="ltr">realization bundle</text></g><g stroke-linecap="round"><g transform="translate(207 105) rotate(0 95.5 0)"><path d="M0 0 C31.83 0, 159.17 0, 191 0 M0 0 C31.83 0, 159.17 0, 191 0" stroke="#868e96" stroke-width="2" fill="none"></path></g><g transform="translate(207 105) rotate(0 95.5 0)"><path d="M191 0 L177.41 6.34 L177.41 -6.34 L191 0" stroke="none" stroke-width="0" fill="#868e96" fill-rule="evenodd"></path><path d="M191 0 C185.86 2.4, 180.73 4.79, 177.41 6.34 M191 0 C185.96 2.35, 180.92 4.7, 177.41 6.34 M177.41 6.34 C177.41 3.39, 177.41 0.44, 177.41 -6.34 M177.41 6.34 C177.41 3.53, 177.41 0.71, 177.41 -6.34 M177.41 -6.34 C182.35 -4.03, 187.3 -1.73, 191 0 M177.41 -6.34 C181.45 -4.45, 185.49 -2.57, 191 0 M191 0 C191 0, 191 0, 191 0 M191 0 C191 0, 191 0, 191 0" stroke="#868e96" stroke-width="2" fill="none"></path></g></g><g transform="translate(252 129) rotate(0 54 7.5)"><text x="108" y="12" font-family="Helvetica, Segoe UI Emoji" font-size="12px" fill="#7048e8" text-anchor="end" style="white-space: pre;" direction="ltr">control channel</text></g><g stroke-linecap="round"><g transform="translate(207 149) rotate(0 95.5 0)"><path d="M0 0 C31.83 0, 159.17 0, 191 0 M0 0 C31.83 0, 159.17 0, 191 0" stroke="#7048e8" stroke-width="2" fill="none"></path></g><g transform="translate(207 149) rotate(0 95.5 0)"><path d="M0 0 L13.59 -6.34 L13.59 6.34 L0 0" stroke="none" stroke-width="0" fill="#7048e8" fill-rule="evenodd"></path><path d="M0 0 C3.44 -1.61, 6.89 -3.21, 13.59 -6.34 M0 0 C4.78 -2.23, 9.56 -4.46, 13.59 -6.34 M13.59 -6.34 C13.59 -2.01, 13.59 2.32, 13.59 6.34 M13.59 -6.34 C13.59 -2.54, 13.59 1.26, 13.59 6.34 M13.59 6.34 C8.4 3.92, 3.21 1.5, 0 0 M13.59 6.34 C9.76 4.55, 5.93 2.77, 0 0 M0 0 C0 0, 0 0, 0 0 M0 0 C0 0, 0 0, 0 0" stroke="#7048e8" stroke-width="2" fill="none"></path></g><g transform="translate(207 149) rotate(0 95.5 0)"><path d="M191 0 L177.41 6.34 L177.41 -6.34 L191 0" stroke="none" stroke-width="0" fill="#7048e8" fill-rule="evenodd"></path><path d="M191 0 C187.56 1.61, 184.11 3.21, 177.41 6.34 M191 0 C186.22 2.23, 181.44 4.46, 177.41 6.34 M177.41 6.34 C177.41 2.01, 177.41 -2.32, 177.41 -6.34 M177.41 6.34 C177.41 2.54, 177.41 -1.26, 177.41 -6.34 M177.41 -6.34 C182.6 -3.92, 187.79 -1.5, 191 0 M177.41 -6.34 C181.24 -4.55, 185.07 -2.77, 191 0 M191 0 C191 0, 191 0, 191 0 M191 0 C191 0, 191 0, 191 0" stroke="#7048e8" stroke-width="2" fill="none"></path></g></g><g transform="translate(235 159) rotate(0 60 12.5)"><text x="60" y="9.5" font-family="'SFMono-Regular', Menlo, Consolas, 'Courier New', monospace" font-size="10px" fill="#7048e8" text-anchor="middle" style="white-space: pre;" direction="ltr">exec() · read_file()</text><text x="60" y="22" font-family="'SFMono-Regular', Menlo, Consolas, 'Courier New', monospace" font-size="10px" fill="#7048e8" text-anchor="middle" style="white-space: pre;" direction="ltr">write_file() · …</text></g><g transform="translate(302.4 240) rotate(0 28.80000000000001 7.5)"><text x="57.599999999999994" y="12" font-family="Helvetica, Segoe UI Emoji" font-size="12px" fill="#e67700" text-anchor="end" style="white-space: pre;" direction="ltr">evidence</text></g><g stroke-linecap="round"><g transform="translate(388 260) rotate(0 -83 0)"><path d="M0 0 C-27.67 0, -138.33 0, -166 0 M0 0 C-27.67 0, -138.33 0, -166 0" stroke="#e67700" stroke-width="2" fill="none"></path></g><g transform="translate(388 260) rotate(0 -83 0)"><path d="M-166 0 L-152.41 -6.34 L-152.41 6.34 L-166 0" stroke="none" stroke-width="0" fill="#e67700" fill-rule="evenodd"></path><path d="M-166 0 C-161.78 -1.97, -157.55 -3.94, -152.41 -6.34 M-166 0 C-162.49 -1.64, -158.97 -3.28, -152.41 -6.34 M-152.41 -6.34 C-152.41 -3.77, -152.41 -1.21, -152.41 6.34 M-152.41 -6.34 C-152.41 -3.22, -152.41 -0.1, -152.41 6.34 M-152.41 6.34 C-157.75 3.85, -163.1 1.35, -166 0 M-152.41 6.34 C-156.08 4.63, -159.76 2.91, -166 0 M-166 0 C-166 0, -166 0, -166 0 M-166 0 C-166 0, -166 0, -166 0" stroke="#e67700" stroke-width="2" fill="none"></path></g></g></svg>